<svg width="20" height="20" viewBox="0 0 20 20" fill="none" xmlns="http://www.w3.org/2000/svg">
<path d="M16.875 1.25H3.125C2.62772 1.25 2.15081 1.44754 1.79917 1.79917C1.44754 2.15081 1.25 2.62772 1.25 3.125L1.25 16.875C1.25 17.3723 1.44754 17.8492 1.79917 18.2008C2.15081 18.5525 2.62772 18.75 3.125 18.75H8.48633V12.8004H6.02539V10H8.48633V7.86562C8.48633 5.43789 9.93164 4.09687 12.1453 4.09687C13.2055 4.09687 14.3141 4.28594 14.3141 4.28594V6.66875H13.0926C11.8891 6.66875 11.5137 7.41562 11.5137 8.18164V10H14.2004L13.7707 12.8004H11.5137V18.75H16.875C17.3723 18.75 17.8492 18.5525 18.2008 18.2008C18.5525 17.8492 18.75 17.3723 18.75 16.875V3.125C18.75 2.62772 18.5525 2.15081 18.2008 1.79917C17.8492 1.44754 17.3723 1.25 16.875 1.25Z" fill="#292830"/>
</svg>
