<svg width="20" height="20" viewBox="0 0 20 20" fill="none" xmlns="http://www.w3.org/2000/svg">
<path d="M16.875 1.25H3.125C2.08984 1.25 1.25 2.08984 1.25 3.125V16.875C1.25 17.9102 2.08984 18.75 3.125 18.75H16.875C17.9102 18.75 18.75 17.9102 18.75 16.875V3.125C18.75 2.08984 17.9102 1.25 16.875 1.25ZM14.9648 7.45312C14.9727 7.5625 14.9727 7.67578 14.9727 7.78516C14.9727 11.1719 12.3945 15.0742 7.68359 15.0742C6.23047 15.0742 4.88281 14.6523 3.75 13.9258C3.95703 13.9492 4.15625 13.957 4.36719 13.957C5.56641 13.957 6.66797 13.5508 7.54688 12.8633C6.42188 12.8398 5.47656 12.1016 5.15234 11.0859C5.54688 11.1445 5.90234 11.1445 6.30859 11.0391C5.13672 10.8008 4.25781 9.76953 4.25781 8.52344V8.49219C4.59766 8.68359 4.99609 8.80078 5.41406 8.81641C5.06267 8.58267 4.7746 8.26557 4.57557 7.89342C4.37655 7.52127 4.27275 7.10563 4.27344 6.68359C4.27344 6.20703 4.39844 5.76953 4.62109 5.39062C5.88281 6.94531 7.77734 7.96094 9.90234 8.07031C9.53906 6.33203 10.8398 4.92188 12.4023 4.92188C13.1406 4.92188 13.8047 5.23047 14.2734 5.73047C14.8516 5.62109 15.4062 5.40625 15.8984 5.11328C15.707 5.70703 15.3047 6.20703 14.7734 6.52344C15.2891 6.46875 15.7891 6.32422 16.25 6.125C15.9023 6.63672 15.4648 7.08984 14.9648 7.45312Z" fill="#292830"/>
</svg>
